<?xml version="1.0" encoding="UTF-8"?>
<svg xmlns="http://www.w3.org/2000/svg" width="256" height="256" viewBox="0 0 256 256">
  <g id="layer-0" fill="#94532c" stroke="none" transform="translate(0.000000,256.000000) scale(0.100000,-0.100000)">
    <path d="M2329 2143 c-50 -46 -65 -62 -165 -182 -44 -52 -90 -102 -104 -112
-24 -17 -143 -30 -495 -54 -124 -9 -174 -13 -295 -25 -58 -5 -130 -12 -160
-14 -30 -3 -127 -12 -215 -20 -88 -9 -185 -18 -215 -21 -30 -2 -98 -9 -150
-14 -52 -5 -100 -6 -107 -4 -16 6 -32 -36 -34 -90 -2 -56 19 -363 31 -457 5
-41 12 -136 15 -210 4 -74 10 -166 14 -205 5 -38 9 -105 10 -147 1 -42 6 -92
12 -110 14 -49 12 -51 -28 -44 l-38 6 30 -14 c17 -7 40 -24 53 -36 21 -20 23
-28 17 -74 -4 -28 -11 -67 -17 -86 -5 -20 -8 -47 -6 -60 3 -25 4 -25 98 -22
52 1 127 7 165 12 183 23 452 61 465 65 8 2 71 11 140 20 69 8 166 22 215 30
50 8 151 21 225 30 132 16 250 35 340 55 91 21 306 51 334 47 27 -4 27 -3 11
10 -11 7 -30 13 -44 14 l-26 1 25 8 c14 4 36 8 50 8 l25 0 -25 -7 -25 -7 28
-6 c16 -3 33 0 40 7 7 6 18 10 25 7 20 -6 14 36 -7 47 -10 6 -36 25 -59 43
-22 18 -59 44 -81 58 -31 18 -41 30 -41 50 0 22 15 34 100 85 l100 59 -2 345
c-3 376 0 351 -73 606 -8 28 -17 70 -21 95 -6 42 -5 44 10 25 14 -19 15 -19
16 -2 0 11 -9 21 -20 24 -22 6 -27 29 -8 35 6 2 9 12 5 21 -4 10 -12 14 -22
11 -10 -4 -15 0 -15 15 0 12 6 21 15 21 13 0 14 4 5 20 -6 11 -15 18 -21 15
-5 -4 -9 -1 -9 4 0 6 5 11 10 11 15 0 12 26 -4 43 -8 8 -13 23 -10 34 3 11 -1
25 -10 32 -8 7 -12 19 -9 27 10 27 -26 14 -68 -23z m-440 -690 c7 -16 24 -82
37 -148 30 -154 56 -274 88 -405 54 -226 65 -284 54 -291 -11 -7 -139 -29
-443 -75 -160 -25 -232 -35 -510 -73 -82 -12 -174 -26 -204 -31 -46 -8 -57 -7
-73 6 -18 17 -70 16 -219 -2 -40 -5 -48 -4 -53 12 -8 26 -43 387 -56 569 -6
83 -15 190 -20 240 -5 49 -6 93 -2 97 9 8 186 25 352 34 69 3 161 12 205 19
44 8 190 21 325 30 135 10 292 23 350 30 157 19 155 19 169 -12z m241 -1053
c0 -9 -14 -14 -33 -11 -4 1 -22 -6 -40 -16 -18 -9 -48 -15 -68 -14 -22 1 -41
-4 -49 -14 -14 -17 -35 -21 -25 -5 8 13 -44 2 -62 -13 -9 -6 -13 -6 -13 3 0 8
-8 10 -27 5 -16 -5 -41 -9 -58 -11 -67 -5 -123 -13 -168 -23 -27 -6 -67 -13
-90 -16 -23 -2 -57 -9 -76 -14 -19 -6 -38 -8 -43 -5 -5 3 -15 1 -22 -5 -10 -9
-15 -8 -20 4 -4 13 -10 13 -28 4 -67 -35 -63 -34 -65 -9 -2 21 7 25 92 35 28
3 91 12 140 20 50 7 144 21 210 30 66 9 172 23 235 32 63 8 126 19 140 23 36
12 70 12 70 0z m-900 -141 c0 -15 -4 -19 -16 -15 -9 4 -22 2 -29 -4 -6 -5 -49
-12 -95 -15 -46 -2 -88 -9 -93 -14 -5 -5 -33 -7 -61 -5 -38 4 -47 3 -36 -5 12
-9 8 -11 -20 -10 -19 0 -62 -5 -95 -11 -67 -12 -140 -10 -140 5 0 10 7 12 275
51 96 14 195 29 220 33 79 14 90 13 90 -10z m-699 -71 c25 -32 24 -40 -8 -36
-22 2 -29 9 -31 31 -4 33 13 35 39 5z m96 -13 c2 -6 -12 -11 -32 -11 -34 0
-42 6 -28 20 10 10 56 3 60 -9z M365 2120 c10 -16 35 -256 35 -332 0 -54 -3
-68 -15 -68 -8 0 -15 -5 -15 -11 0 -6 10 -9 23 -7 21 3 22 7 19 83 -2 44 -10
136 -18 205 -7 69 -14 128 -14 133 0 4 -5 7 -11 7 -5 0 -7 -5 -4 -10z M2490
1795 c7 -9 15 -13 17 -11 7 7 -7 26 -19 26 -6 0 -6 -6 2 -15z M2511 1724 c0
-11 3 -14 6 -6 3 7 2 16 -1 19 -3 4 -6 -2 -5 -13z M2551 1584 c0 -11 3 -14 6
-6 3 7 2 16 -1 19 -3 4 -6 -2 -5 -13z M23 453 c15 -2 37 -2 50 0 12 2 0 4 -28
4 -27 0 -38 -2 -22 -4z M148 443 c29 -2 74 -2 100 0 26 2 2 3 -53 3 -55 0 -76
-1 -47 -3z M330 446 c0 -2 11 -6 25 -8 13 -3 22 -1 19 3 -5 9 -44 13 -44 5z"/>
  </g>
  <g id="layer-1" fill="#be8563" stroke="none" transform="translate(0.000000,256.000000) scale(0.100000,-0.100000)">
    <path d="M1830 2469 c-69 -4 -235 -15 -370 -23 -135 -9 -279 -19 -320 -21 -41
-3 -169 -12 -285 -20 -116 -8 -277 -20 -360 -25 -82 -6 -153 -14 -157 -18 -8
-8 6 -164 18 -203 2 -9 13 -19 23 -22 16 -4 20 -18 25 -83 3 -44 6 -91 6 -106
0 -23 4 -28 25 -28 27 0 34 -15 10 -24 -24 -9 -19 -35 6 -29 18 5 20 3 15 -15
-4 -11 -2 -23 4 -27 6 -4 9 -14 5 -23 -3 -8 0 -19 7 -24 8 -5 -1 -8 -24 -8
-21 0 -38 -4 -38 -9 0 -15 23 -19 44 -9 10 6 44 11 74 12 34 0 57 6 60 14 2 7
-5 12 -17 12 -49 0 -33 41 18 46 35 4 51 -14 28 -31 -23 -16 -11 -25 34 -25
28 0 36 4 35 16 -2 24 23 29 31 7 3 -10 11 -21 16 -24 14 -10 97 34 92 49 -7
19 11 14 43 -13 31 -26 69 -32 100 -16 9 5 36 15 60 22 29 8 41 17 40 28 -3
13 8 16 59 17 47 0 67 5 83 19 18 16 23 17 30 5 6 -8 10 -20 10 -26 0 -18 27
-24 40 -10 6 8 10 27 9 42 -2 42 18 87 36 80 8 -3 18 0 22 7 5 7 22 13 38 12
23 0 30 4 30 20 0 27 28 25 40 -2 12 -29 22 -29 31 -1 4 13 2 24 -5 26 -6 2
-11 15 -11 28 0 24 10 31 24 17 18 -18 38 -9 51 24 11 27 12 39 4 49 -8 9 -8
14 -1 14 6 0 17 3 25 6 9 3 17 -3 22 -18 7 -21 8 -21 12 10 4 31 23 36 23 6 0
-17 23 -44 38 -44 8 0 22 22 22 36 0 2 -8 4 -17 4 -10 0 -31 16 -46 35 -15 19
-24 35 -20 35 14 0 29 -14 36 -33 4 -10 13 -17 20 -14 18 6 17 69 -1 90 -14
15 -14 18 -2 15 8 -2 15 4 15 12 0 8 5 18 11 22 5 4 9 25 8 47 -2 43 5 51 25
27 12 -14 46 -11 69 7 6 5 12 6 12 2 0 -4 7 -2 15 5 24 20 35 0 25 -45 -15
-66 15 -71 60 -11 14 19 27 34 30 33 8 -2 74 62 69 67 -11 11 -75 12 -189 5z
m-286 -338 c-5 -5 -19 -5 -31 0 -25 9 -22 36 5 41 20 5 40 -28 26 -41z m-147
-76 c1 -46 -5 -59 -23 -47 -11 8 2 92 14 92 4 0 8 -20 9 -45z m53 10 c0 -8 -4
-15 -10 -15 -5 0 -10 7 -10 15 0 8 5 15 10 15 6 0 10 -7 10 -15z M1736 2326
c4 -19 0 -27 -16 -36 -15 -8 -19 -15 -12 -22 6 -6 8 -17 5 -24 -3 -8 0 -21 7
-30 11 -13 15 -10 27 18 8 18 19 42 25 52 8 16 6 23 -10 37 -12 9 -18 19 -15
23 4 3 1 6 -6 6 -7 0 -9 -9 -5 -24z M1870 2280 c0 -5 5 -10 11 -10 5 0 7 5 4
10 -3 6 -8 10 -11 10 -2 0 -4 -4 -4 -10z M1800 2222 c0 -25 16 -37 23 -18 3 8
-1 20 -9 26 -11 10 -14 9 -14 -8z M1872 2200 c-3 -44 5 -50 29 -22 15 17 14
21 -2 40 -9 12 -19 22 -21 22 -2 0 -5 -18 -6 -40z M1727 2183 c-4 -3 -1 -13 6
-21 9 -12 9 -16 0 -19 -18 -6 -16 -33 1 -33 14 0 26 46 18 68 -4 13 -15 15
-25 5z M1605 2100 c3 -5 8 -10 11 -10 2 0 4 5 4 10 0 6 -5 10 -11 10 -5 0 -7
-4 -4 -10z M1674 2064 c3 -9 6 -18 6 -20 0 -3 4 -3 10 1 11 7 2 35 -12 35 -6
0 -7 -7 -4 -16z M1400 1941 c0 -13 26 -32 33 -24 8 7 -11 33 -24 33 -5 0 -9
-4 -9 -9z M1128 1400 c-75 -9 -88 -15 -88 -36 0 -14 -55 -18 -195 -13 -210 7
-284 4 -302 -14 -21 -20 -30 -137 -16 -202 8 -36 12 -40 36 -37 15 2 27 -1 27
-6 0 -12 -29 -24 -41 -17 -4 3 -9 -18 -9 -47 -1 -29 -2 -62 -2 -73 -5 -76 36
-493 49 -506 5 -5 36 -4 68 1 83 14 192 13 197 -1 3 -9 38 -7 128 5 172 23
170 23 171 49 0 22 0 22 10 -2 7 -19 14 -22 35 -17 14 4 73 14 132 22 184 27
172 23 172 52 0 24 -9 59 -33 125 -6 17 -15 26 -23 23 -7 -3 -16 -1 -19 4 -4
6 -1 10 4 10 17 0 13 21 -6 36 -17 12 -16 13 5 14 13 0 20 4 17 10 -3 6 -17
10 -30 10 -12 0 -26 7 -29 16 -4 12 -1 14 14 9 11 -4 20 -2 20 4 0 6 -11 11
-25 11 -14 0 -25 5 -25 10 0 6 -7 10 -15 10 -8 0 -15 -4 -15 -10 0 -5 -9 -10
-19 -10 -11 0 -22 -4 -25 -9 -4 -5 -23 -3 -45 6 -46 18 -96 11 -87 -12 3 -8
-2 -19 -11 -24 -12 -6 -17 -23 -17 -60 0 -28 -3 -48 -7 -44 -7 7 -31 165 -25
170 1 1 35 5 76 9 41 3 77 8 80 9 3 2 41 6 85 10 86 7 105 16 99 43 -24 120
-46 247 -59 337 -23 159 -13 145 -108 144 -45 -1 -112 -5 -149 -9z m-74 -145
c4 -38 5 -67 2 -64 -8 8 -24 123 -19 132 8 13 10 6 17 -68z m-114 -65 c0 -5
-4 -10 -10 -10 -5 0 -10 5 -10 10 0 6 5 10 10 10 6 0 10 -4 10 -10z m-260 -30
c12 -8 9 -10 -12 -10 -16 0 -28 5 -28 10 0 13 20 13 40 0z m-105 -119 c3 -5 1
-12 -5 -16 -5 -3 -10 1 -10 9 0 18 6 21 15 7z m574 -465 c1 -57 -6 -41 -12 29
-4 39 -3 51 2 35 5 -14 9 -43 10 -64z M1410 1350 c-12 -7 -12 -12 -2 -22 9 -9
12 -9 12 0 0 7 6 12 14 12 8 0 18 5 21 10 8 13 -25 13 -45 0z M145 1319 c-9
-14 -5 -17 34 -21 23 -2 36 2 39 11 3 10 -1 12 -17 8 -11 -3 -21 -1 -21 4 0
13 -27 11 -35 -2z M240 1304 c0 -12 7 -15 25 -12 17 4 25 1 25 -8 0 -8 5 -14
10 -14 16 0 11 37 -6 44 -29 11 -54 6 -54 -10z M1480 1300 c0 -6 7 -10 15 -10
8 0 15 2 15 4 0 2 -7 6 -15 10 -8 3 -15 1 -15 -4z M1430 1290 c0 -5 7 -10 16
-10 8 0 12 5 9 10 -3 6 -10 10 -16 10 -5 0 -9 -4 -9 -10z M117 1273 c-9 -9 12
-33 29 -33 17 0 18 12 2 28 -14 14 -22 15 -31 5z M187 1266 c-3 -8 5 -24 18
-36 23 -22 23 -22 34 -2 15 28 14 32 -9 32 -11 0 -20 5 -20 10 0 15 -17 12
-23 -4z M1427 1193 c3 -8 14 -11 32 -7 37 9 37 11 -2 16 -25 3 -33 0 -30 -9z
M25 1190 c3 -5 8 -10 11 -10 2 0 4 5 4 10 0 6 -5 10 -11 10 -5 0 -7 -4 -4 -10z
M120 1190 c0 -5 5 -10 10 -10 6 0 10 5 10 10 0 6 -4 10 -10 10 -5 0 -10 -4
-10 -10z M300 1170 c0 -5 5 -10 10 -10 6 0 10 5 10 10 0 6 -4 10 -10 10 -5 0
-10 -4 -10 -10z M0 1136 c0 -19 29 -48 43 -43 27 9 15 40 -20 51 -17 5 -23 3
-23 -8z M1440 1142 c0 -6 9 -12 20 -15 11 -3 20 -3 20 -1 0 2 -9 8 -20 14 -11
6 -20 7 -20 2z M120 1120 c0 -5 9 -10 21 -10 11 0 17 5 14 10 -3 6 -13 10 -21
10 -8 0 -14 -4 -14 -10z M270 1111 c0 -5 5 -13 10 -16 6 -3 10 -2 10 4 0 5 -4
13 -10 16 -5 3 -10 2 -10 -4z M89 1063 c-1 -21 -1 -41 0 -45 2 -13 -40 -19
-54 -8 -20 16 -19 30 1 30 23 0 13 31 -14 41 l-22 8 0 -308 0 -308 88 -7 c48
-3 144 -6 215 -5 l127 1 0 27 c0 15 -7 36 -15 47 -8 10 -15 31 -15 45 0 15 -7
32 -15 39 -11 9 -12 17 -5 30 15 29 12 35 -22 45 -44 14 -49 35 -8 35 21 0 30
4 28 13 -5 12 -9 14 -52 16 -33 1 -44 41 -11 41 13 0 26 7 29 16 9 23 8 24
-13 24 -31 0 -33 17 -6 38 14 11 25 24 25 30 0 5 7 15 15 22 22 18 18 39 -10
52 -18 8 -28 8 -39 -1 -8 -7 -19 -10 -25 -7 -5 3 -31 8 -57 11 -35 3 -52 0
-65 -11 -10 -9 -23 -13 -29 -9 -7 4 -4 13 10 25 30 26 26 59 -10 73 -16 6 -30
17 -30 24 0 7 -4 13 -10 13 -5 0 -11 -17 -11 -37z m241 -113 c0 -5 -6 -10 -14
-10 -8 0 -18 5 -21 10 -3 6 3 10 14 10 12 0 21 -4 21 -10z m-170 -5 c0 -14
-37 -22 -52 -11 -15 11 -13 13 17 14 19 1 35 -1 35 -3z m160 -48 c0 -7 -4 -7
-12 1 -7 7 -21 12 -32 13 -21 0 -21 0 -1 8 21 9 45 -3 45 -22z m-115 -13 c19
7 19 -8 0 -24 -11 -9 -22 -9 -49 0 -31 10 -34 14 -24 30 11 16 14 17 35 3 12
-8 30 -13 38 -9z m-165 -58 c0 -3 -4 -8 -10 -11 -5 -3 -10 -1 -10 4 0 6 5 11
10 11 6 0 10 -2 10 -4z m50 -26 c0 -5 -4 -10 -10 -10 -5 0 -10 5 -10 10 0 6 5
10 10 10 6 0 10 -4 10 -10z m108 -13 c2 -11 -3 -17 -17 -17 -25 0 -38 19 -20
31 19 12 33 6 37 -14z m62 -207 c0 -5 -5 -10 -11 -10 -5 0 -7 5 -4 10 3 6 8
10 11 10 2 0 4 -4 4 -10z m-76 -21 c-8 -14 -24 -10 -24 6 0 9 6 12 15 9 8 -4
12 -10 9 -15z M1454 1027 c8 -66 23 -87 63 -87 25 0 73 27 73 41 0 5 -14 6
-30 2 -25 -5 -29 -3 -24 11 3 9 16 16 28 16 11 0 28 5 36 10 13 9 13 11 0 20
-8 6 -29 8 -45 5 -24 -4 -32 -1 -40 17 -6 13 -21 22 -39 24 l-28 3 6 -62z m46
23 c0 -5 -5 -10 -11 -10 -5 0 -7 5 -4 10 3 6 8 10 11 10 2 0 4 -4 4 -10z M200
1044 c0 -8 5 -12 10 -9 6 3 10 10 10 16 0 5 -4 9 -10 9 -5 0 -10 -7 -10 -16z
M295 1030 c3 -5 8 -10 11 -10 2 0 4 5 4 10 0 6 -5 10 -11 10 -5 0 -7 -4 -4
-10z M1481 905 c-1 -33 47 -354 55 -363 4 -5 167 18 202 29 26 9 30 14 22 24
-8 10 -5 17 12 29 12 9 31 16 42 16 14 0 17 3 9 11 -7 7 -22 8 -48 0 -27 -7
-44 -7 -59 1 -20 11 -20 12 12 21 36 11 43 29 10 27 -13 -1 -25 -1 -28 0 -18
7 -59 6 -78 -1 -28 -11 -74 -1 -69 15 4 12 37 17 101 16 21 0 43 3 50 8 6 5
23 12 39 16 23 5 26 10 21 31 -5 19 -2 25 10 25 9 0 16 5 16 10 0 6 -22 10
-50 9 -55 -2 -70 5 -52 23 19 19 14 26 -14 20 -16 -3 -29 1 -34 9 -7 10 -14
11 -32 2 -39 -19 -54 -22 -69 -12 -12 8 -11 12 4 23 26 20 21 26 -22 26 -22 0
-42 5 -44 13 -3 6 -6 -6 -6 -28z m279 -125 c0 -5 -9 -10 -20 -10 -11 0 -20 5
-20 10 0 6 9 10 20 10 11 0 20 -4 20 -10z m-123 -6 c-10 -10 -77 -22 -77 -14
0 5 15 11 33 13 17 2 36 5 41 5 5 1 7 -1 3 -4z M1640 925 c0 -9 5 -15 11 -13
6 2 11 8 11 13 0 5 -5 11 -11 13 -6 2 -11 -4 -11 -13z M1918 833 c7 -3 16 -2
19 1 4 3 -2 6 -13 5 -11 0 -14 -3 -6 -6z M637 3 c354 -2 932 -2 1285 0 354 1
65 2 -642 2 -707 0 -996 -1 -643 -2z"/>
  </g>
  <g id="layer-2" fill="#74797b" stroke="none" transform="translate(0.000000,256.000000) scale(0.100000,-0.100000)">
    <path d="M0 2162 l0 -397 168 -33 c92 -18 175 -33 185 -32 12 0 17 8 17 30 0
64 -42 318 -59 360 -10 25 -22 72 -26 105 -4 33 -12 66 -18 73 -13 17 8 33 38
30 14 -2 22 -13 27 -38 4 -20 5 -7 2 32 -2 37 0 69 5 72 5 4 76 11 158 16 81
6 242 17 358 25 116 8 246 17 290 20 44 3 184 12 310 20 512 33 581 36 608 26
15 -6 27 -14 27 -18 0 -5 -7 -93 -14 -198 -8 -104 -16 -233 -18 -285 -4 -131
6 -131 119 6 48 59 99 117 112 128 13 12 38 36 54 54 17 17 36 32 42 32 13 0
51 -122 125 -400 23 -85 44 -157 46 -159 2 -2 4 206 4 462 l0 467 -1280 0
-1280 0 0 -398z M341 2194 c0 -16 6 -39 15 -50 8 -10 12 -12 8 -4 -4 8 -11 30
-15 50 -7 35 -7 35 -8 4z M2453 722 c-78 -48 -93 -61 -93 -82 0 -20 10 -32 41
-50 22 -14 59 -40 81 -58 83 -67 78 -72 78 98 0 82 -3 150 -7 149 -5 -1 -50
-26 -100 -57z M2497 423 c-18 -5 -17 -6 3 -28 22 -23 22 -23 2 -34 -12 -6 -43
-11 -69 -11 -81 0 -254 -25 -483 -70 -52 -10 -156 -26 -230 -35 -166 -20 -680
-91 -810 -111 -360 -55 -486 -65 -497 -38 -3 9 7 67 23 130 l29 114 -28 27
-27 28 -205 3 -205 3 0 -195 0 -196 1280 0 1280 0 0 204 c0 227 1 225 -63 209z"/>
  </g>
  <g id="layer-3" fill="#b37651" stroke="none" transform="translate(0.000000,256.000000) scale(0.100000,-0.100000)">
    <path d="M1998 2473 c12 -2 22 -8 22 -11 0 -9 -63 -67 -70 -65 -3 1 -16 -14
-30 -33 -45 -60 -75 -55 -60 11 10 45 -1 65 -25 45 -8 -7 -15 -9 -15 -5 0 4
-6 3 -12 -2 -23 -18 -57 -21 -69 -7 -20 24 -27 16 -25 -27 1 -22 -3 -43 -8
-47 -6 -4 -11 -14 -11 -22 0 -8 -7 -14 -15 -12 -12 3 -12 0 2 -15 18 -21 19
-84 1 -90 -7 -3 -16 4 -20 14 -7 19 -22 33 -36 33 -4 0 5 -16 20 -35 15 -19
36 -35 47 -35 12 0 16 -5 12 -16 -3 -9 -6 -18 -6 -20 0 -2 -5 -4 -11 -4 -15 0
-39 26 -39 44 0 30 -19 25 -23 -6 -4 -31 -5 -31 -12 -10 -5 15 -13 21 -22 18
-8 -3 -19 -6 -25 -6 -7 0 -7 -5 1 -14 8 -10 7 -22 -4 -49 -13 -33 -33 -42 -51
-24 -14 14 -24 7 -24 -17 0 -13 5 -26 11 -28 7 -2 9 -13 5 -26 -9 -28 -19 -28
-31 1 -12 27 -40 29 -40 2 0 -16 -7 -20 -30 -20 -16 1 -33 -5 -38 -12 -4 -7
-14 -10 -22 -7 -18 7 -38 -38 -36 -80 1 -15 -3 -34 -9 -42 -13 -14 -40 -8 -40
10 0 6 -4 18 -10 26 -7 12 -12 11 -30 -5 -16 -14 -36 -19 -83 -19 -51 -1 -62
-4 -59 -17 1 -11 -11 -20 -40 -28 -24 -7 -51 -17 -60 -22 -31 -16 -69 -10
-100 16 -32 27 -50 32 -43 13 5 -15 -78 -59 -92 -49 -5 3 -13 14 -16 24 -8 22
-33 17 -31 -7 1 -12 -7 -16 -35 -16 -45 0 -57 9 -34 25 23 17 7 35 -28 31 -51
-5 -67 -46 -18 -46 12 0 19 -5 17 -12 -3 -8 -26 -14 -60 -14 -30 -1 -64 -6
-74 -12 -21 -10 -44 -6 -44 9 0 5 17 9 38 9 23 0 32 3 24 8 -7 5 -10 16 -7 24
4 9 1 19 -5 23 -6 4 -8 16 -4 27 5 18 3 20 -15 15 -25 -6 -30 20 -6 29 24 9
17 24 -10 24 -21 0 -25 5 -25 28 0 77 -16 186 -29 190 -8 3 -11 0 -8 -5 9 -14
35 -250 39 -348 l3 -80 -43 -3 c-24 -2 -110 11 -192 27 -82 17 -156 31 -165
31 -13 0 -15 -39 -15 -305 l0 -305 24 -6 c25 -6 40 -29 30 -45 -8 -13 -21 -11
-38 7 -15 14 -16 14 -16 -1 0 -8 11 -20 25 -25 27 -10 34 -40 10 -40 -19 0
-19 -14 0 -30 14 -11 56 -5 54 8 -4 29 3 82 11 82 6 0 10 -6 10 -13 0 -7 14
-18 30 -24 36 -14 40 -47 10 -73 -14 -12 -17 -21 -10 -25 6 -4 19 0 29 9 13
11 30 14 65 11 26 -3 52 -8 57 -11 6 -3 17 0 25 7 11 9 21 9 39 1 28 -13 32
-34 10 -52 -8 -7 -15 -17 -15 -22 0 -6 -11 -19 -25 -30 -28 -22 -25 -38 7 -38
14 0 18 -5 14 -16 -3 -9 -6 -18 -6 -20 0 -2 -11 -4 -24 -4 -19 0 -23 -4 -19
-20 3 -12 14 -20 29 -21 43 -2 47 -4 51 -16 3 -9 -6 -13 -27 -13 -41 0 -36
-21 8 -35 34 -10 37 -16 22 -45 -7 -13 -6 -21 5 -30 8 -7 15 -24 15 -39 0 -14
7 -35 15 -45 8 -11 15 -33 15 -48 l0 -29 -218 4 c-234 3 -196 -8 58 -17 85 -3
167 -8 182 -12 31 -7 32 -4 19 44 -6 18 -11 68 -12 110 -1 42 -5 109 -10 147
-4 39 -10 131 -14 205 -3 74 -10 169 -15 210 -12 94 -33 401 -31 457 2 54 18
96 34 90 7 -2 55 -1 107 4 52 5 120 12 150 14 30 3 127 12 215 21 88 8 185 17
215 20 30 2 102 9 160 14 121 12 171 16 295 25 443 30 545 46 501 78 -14 11
-15 30 -6 172 6 88 15 212 20 275 5 63 10 120 10 126 0 16 -46 34 -83 33 -23
-1 -26 -3 -9 -6z m-251 -129 c-3 -4 3 -14 15 -23 16 -14 18 -21 10 -37 -6 -10
-17 -34 -25 -52 -12 -28 -16 -31 -27 -18 -7 9 -10 22 -7 30 3 7 1 18 -5 24 -7
7 -3 14 12 22 16 9 20 17 16 36 -4 15 -2 24 5 24 7 0 10 -3 6 -6z m138 -64 c3
-5 1 -10 -4 -10 -6 0 -11 5 -11 10 0 6 2 10 4 10 3 0 8 -4 11 -10z m-62 -76
c-7 -19 -23 -7 -23 18 0 17 3 18 14 8 8 -6 12 -18 9 -26z m76 14 c16 -19 17
-23 2 -40 -24 -28 -32 -22 -29 22 1 22 4 40 6 40 2 0 12 -10 21 -22z m-147
-40 c8 -22 -4 -68 -18 -68 -17 0 -19 27 -1 33 9 3 9 7 0 19 -7 8 -10 18 -6 21
10 10 21 8 25 -5z m-132 -78 c0 -5 -2 -10 -4 -10 -3 0 -8 5 -11 10 -3 6 -1 10
4 10 6 0 11 -4 11 -10z m73 -35 c4 -8 2 -17 -3 -20 -6 -4 -10 -4 -10 -1 0 2
-3 11 -6 20 -3 9 -2 16 4 16 5 0 12 -7 15 -15z m-264 -128 c6 -8 8 -17 4 -20
-7 -8 -33 11 -33 24 0 13 16 11 29 -4z m-1249 -616 c0 -5 10 -7 21 -4 16 4 20
2 17 -8 -3 -9 -16 -13 -39 -11 -39 4 -43 7 -34 21 8 13 35 15 35 2z m114 -7
c17 -7 22 -44 6 -44 -5 0 -10 6 -10 14 0 9 -8 12 -25 8 -18 -3 -25 0 -25 12 0
16 25 21 54 10z m-146 -46 c16 -16 15 -28 -2 -28 -17 0 -38 24 -29 33 9 10 17
9 31 -5z m62 2 c0 -5 9 -10 20 -10 23 0 24 -4 9 -32 -11 -20 -11 -20 -34 2
-13 12 -21 28 -18 36 6 16 23 19 23 4z m-170 -80 c0 -5 -2 -10 -4 -10 -3 0 -8
5 -11 10 -3 6 -1 10 4 10 6 0 11 -4 11 -10z m100 0 c0 -5 -4 -10 -10 -10 -5 0
-10 5 -10 10 0 6 5 10 10 10 6 0 10 -4 10 -10z m180 -20 c0 -5 -4 -10 -10 -10
-5 0 -10 5 -10 10 0 6 5 10 10 10 6 0 10 -4 10 -10z m-165 -50 c3 -5 -3 -10
-14 -10 -12 0 -21 5 -21 10 0 6 6 10 14 10 8 0 18 -4 21 -10z m135 -21 c0 -6
-4 -7 -10 -4 -5 3 -10 11 -10 16 0 6 5 7 10 4 6 -3 10 -11 10 -16z m-70 -48
c0 -6 -4 -13 -10 -16 -5 -3 -10 1 -10 9 0 9 5 16 10 16 6 0 10 -4 10 -9z m90
-21 c0 -5 -2 -10 -4 -10 -3 0 -8 5 -11 10 -3 6 -1 10 4 10 6 0 11 -4 11 -10z
M2366 2181 c-4 -5 3 -7 14 -4 23 6 26 13 6 13 -8 0 -17 -4 -20 -9z M1518 2172
c-27 -5 -30 -32 -5 -41 12 -5 26 -5 31 0 14 13 -6 46 -26 41z M2395 2150 c3
-5 8 -10 11 -10 2 0 4 5 4 10 0 6 -5 10 -11 10 -5 0 -7 -4 -4 -10z M1372 2058
c-8 -41 1 -64 19 -52 9 5 6 94 -3 94 -4 0 -11 -19 -16 -42z M2410 2090 c0 -5
5 -10 10 -10 6 0 10 5 10 10 0 6 -4 10 -10 10 -5 0 -10 -4 -10 -10z M1430
2065 c0 -8 5 -15 10 -15 6 0 10 7 10 15 0 8 -4 15 -10 15 -5 0 -10 -7 -10 -15z
M2420 2022 c0 -5 7 -9 15 -9 8 0 15 4 15 9 0 4 -7 8 -15 8 -8 0 -15 -4 -15 -8z
M2430 1961 c0 -14 6 -19 20 -18 13 1 19 6 15 15 -3 7 -5 16 -5 18 0 2 -7 4
-15 4 -8 0 -15 -9 -15 -19z M2463 1913 c-19 -7 -16 -30 5 -35 15 -4 18 -1 14
18 -2 13 -5 24 -6 23 0 0 -7 -3 -13 -6z M2465 1830 c3 -25 12 -67 20 -95 8
-27 24 -89 35 -136 31 -136 40 -148 36 -49 -4 100 -24 189 -38 168 -7 -9 -8
-4 -3 16 5 22 1 35 -17 54 -16 17 -18 23 -7 20 12 -5 15 -1 11 18 -2 13 -8 21
-13 19 -4 -3 -13 3 -19 12 -9 14 -10 9 -5 -27z M1720 1465 c-58 -7 -215 -20
-350 -30 -135 -9 -281 -22 -325 -30 -44 -7 -136 -16 -205 -19 -166 -9 -343
-26 -352 -34 -4 -4 -3 -48 2 -97 5 -50 14 -157 20 -240 13 -182 48 -543 56
-569 5 -16 13 -17 53 -12 149 18 201 19 219 2 16 -13 27 -14 73 -6 30 5 122
19 204 31 278 38 350 48 510 73 304 46 432 68 443 75 11 7 0 65 -54 291 -32
131 -58 251 -88 405 -13 66 -30 132 -37 148 -14 31 -12 31 -169 12z m-356 -72
c3 -10 12 -67 21 -128 13 -90 35 -217 59 -337 6 -27 -13 -36 -99 -43 -44 -4
-82 -8 -85 -10 -3 -1 -39 -6 -80 -9 -41 -4 -75 -8 -76 -9 -6 -5 18 -163 25
-170 4 -4 7 16 7 44 0 37 5 54 17 60 9 5 14 16 11 24 -9 23 41 30 87 12 22 -9
41 -11 45 -6 3 5 14 9 25 9 10 0 19 5 19 10 0 6 7 10 15 10 8 0 15 -4 15 -10
0 -5 11 -10 25 -10 14 0 25 -5 25 -11 0 -6 -9 -8 -20 -4 -15 5 -18 3 -14 -9 3
-9 17 -16 29 -16 13 0 27 -4 30 -10 3 -6 -4 -10 -17 -10 -21 -1 -22 -2 -5 -14
19 -15 23 -36 6 -36 -5 0 -8 -4 -4 -10 3 -5 12 -7 19 -4 8 3 17 -6 23 -23 24
-66 33 -101 33 -125 0 -29 12 -25 -172 -52 -59 -8 -118 -18 -132 -22 -21 -5
-28 -2 -35 17 -10 24 -10 24 -10 2 -1 -26 1 -26 -171 -49 -90 -12 -125 -14
-128 -5 -5 14 -114 15 -197 1 -32 -5 -63 -6 -68 -1 -13 13 -54 430 -49 506 0
11 1 44 2 73 0 29 5 50 9 47 12 -7 41 5 41 17 0 5 -12 8 -27 6 -24 -3 -28 1
-36 37 -14 65 -5 182 16 202 18 18 92 21 302 14 140 -5 195 -1 195 13 0 8 5
18 10 21 16 10 134 22 227 24 70 1 82 -2 87 -16z m91 -43 c-3 -5 -13 -10 -21
-10 -8 0 -14 -5 -14 -12 0 -9 -3 -9 -12 0 -10 10 -10 15 2 22 20 13 53 13 45
0z m55 -56 c0 -2 -7 -4 -15 -4 -8 0 -15 4 -15 10 0 5 7 7 15 4 8 -4 15 -8 15
-10z m-55 -4 c3 -5 -1 -10 -9 -10 -9 0 -16 5 -16 10 0 6 4 10 9 10 6 0 13 -4
16 -10z m33 -95 c-14 -11 -57 -13 -61 -2 -3 9 5 12 30 9 19 -3 33 -5 31 -7z
m-8 -69 c0 -2 -9 -2 -20 1 -11 3 -20 9 -20 15 0 5 9 4 20 -2 11 -6 20 -12 20
-14z m35 -64 c8 -18 16 -21 40 -17 16 3 37 1 45 -5 13 -9 13 -11 0 -20 -8 -5
-25 -10 -36 -10 -12 0 -25 -7 -28 -16 -5 -14 -1 -16 24 -11 16 4 30 3 30 -2 0
-14 -48 -41 -73 -41 -40 0 -55 21 -63 87 l-6 62 28 -3 c18 -2 33 -11 39 -24z
m16 -142 c43 0 48 -6 22 -26 -15 -11 -16 -15 -4 -23 15 -10 30 -7 69 12 18 9
25 8 32 -2 5 -8 18 -12 34 -9 28 6 33 -1 14 -20 -18 -18 -3 -25 52 -23 28 1
50 -3 50 -9 0 -5 -7 -10 -16 -10 -12 0 -15 -6 -10 -25 5 -21 2 -26 -21 -31
-16 -4 -33 -11 -39 -16 -7 -5 -29 -8 -50 -8 -64 1 -97 -4 -101 -16 -5 -16 41
-26 69 -15 19 7 60 8 78 1 3 -1 15 -1 28 0 33 2 26 -16 -10 -27 -32 -9 -32
-10 -12 -21 15 -8 32 -8 59 -1 26 8 41 7 48 0 8 -8 5 -11 -9 -11 -11 0 -30 -7
-42 -16 -17 -12 -20 -19 -12 -29 8 -10 4 -15 -22 -24 -35 -11 -198 -34 -202
-29 -8 9 -56 330 -55 363 0 22 3 34 6 28 2 -8 22 -13 44 -13z m131 5 c0 -5 -5
-11 -11 -13 -6 -2 -11 4 -11 13 0 9 5 15 11 13 6 -2 11 -8 11 -13z m275 -91
c-3 -3 -12 -4 -19 -1 -8 3 -5 6 6 6 11 1 17 -2 13 -5z M1037 1323 c-5 -9 11
-124 19 -132 5 -5 -6 131 -11 137 -2 2 -5 0 -8 -5z M920 1190 c0 -5 5 -10 10
-10 6 0 10 5 10 10 0 6 -4 10 -10 10 -5 0 -10 -4 -10 -10z M640 1160 c0 -5 12
-10 28 -10 21 0 24 2 12 10 -20 13 -40 13 -40 0z M560 1034 c0 -8 5 -12 10 -9
6 4 8 11 5 16 -9 14 -15 11 -15 -7z M1137 605 c3 -33 7 -62 9 -64 8 -8 2 74
-7 99 -5 16 -6 4 -2 -35z M1485 1050 c-3 -5 -1 -10 4 -10 6 0 11 5 11 10 0 6
-2 10 -4 10 -3 0 -8 -4 -11 -10z M1720 780 c0 -5 9 -10 20 -10 11 0 20 5 20
10 0 6 -9 10 -20 10 -11 0 -20 -4 -20 -10z M1593 773 c-18 -2 -33 -8 -33 -13
0 -8 67 4 77 14 4 3 2 5 -3 4 -5 0 -24 -3 -41 -5z M295 950 c3 -5 13 -10 21
-10 8 0 14 5 14 10 0 6 -9 10 -21 10 -11 0 -17 -4 -14 -10z M108 934 c11 -8
22 -9 34 -3 26 14 22 19 -17 17 -30 -1 -32 -3 -17 -14z M275 919 c-20 -8 -20
-8 1 -8 11 -1 25 -6 32 -13 8 -8 12 -8 12 -1 0 19 -24 31 -45 22z M132 890
c-10 -16 -7 -20 24 -30 27 -9 38 -9 49 0 19 16 19 31 0 24 -8 -4 -26 1 -38 9
-21 14 -24 13 -35 -3z M20 819 c0 -5 5 -7 10 -4 6 3 10 8 10 11 0 2 -4 4 -10
4 -5 0 -10 -5 -10 -11z M70 800 c0 -5 5 -10 10 -10 6 0 10 5 10 10 0 6 -4 10
-10 10 -5 0 -10 -4 -10 -10z M161 801 c-18 -12 -5 -31 20 -31 14 0 19 6 17 17
-4 20 -18 26 -37 14z M245 580 c-3 -5 -1 -10 4 -10 6 0 11 5 11 10 0 6 -2 10
-4 10 -3 0 -8 -4 -11 -10z M160 565 c0 -16 16 -20 24 -6 3 5 -1 11 -9 15 -9 3
-15 0 -15 -9z M2430 441 c-22 -6 -20 -8 19 -14 24 -4 46 -5 49 -2 3 3 -6 5
-19 6 l-24 1 25 8 25 8 -25 0 c-14 0 -36 -3 -50 -7z M2532 438 c5 -15 28 -23
28 -10 0 5 -7 13 -16 16 -10 4 -14 1 -12 -6z M2060 400 c-14 -4 -77 -15 -140
-23 -63 -9 -169 -23 -235 -32 -66 -9 -160 -23 -210 -30 -49 -8 -112 -17 -140
-20 -85 -10 -94 -14 -92 -35 2 -25 -2 -26 65 9 18 9 24 9 28 -4 5 -12 10 -13
20 -4 7 6 17 8 22 5 5 -3 24 -1 43 5 19 5 53 12 76 14 23 3 63 10 90 16 45 10
101 18 168 23 17 2 42 6 58 11 19 5 27 3 27 -5 0 -9 4 -9 13 -3 18 15 70 26
62 13 -10 -16 11 -12 25 5 8 10 27 15 49 14 20 -1 50 5 68 14 18 10 36 17 40
16 19 -3 33 2 33 11 0 12 -34 12 -70 0z M1140 269 c-25 -4 -124 -19 -220 -33
-268 -39 -275 -41 -275 -51 0 -15 73 -17 140 -5 33 6 76 11 95 11 28 -1 32 1
20 10 -11 8 -2 9 36 5 28 -2 56 0 61 5 5 5 47 12 93 14 46 3 89 10 95 15 7 6
20 8 29 4 12 -4 16 0 16 15 0 23 -11 24 -90 10z M492 183 c2 -22 9 -29 31 -31
32 -4 33 4 8 36 -26 30 -43 28 -39 -5z M567 184 c-14 -14 -6 -20 28 -20 20 0
34 5 32 11 -4 12 -50 19 -60 9z"/>
  </g>
  <g id="layer-4" fill="#362c27" stroke="none" transform="translate(0.000000,256.000000) scale(0.100000,-0.100000)">
    <path d="M271 2291 c-11 -7 -12 -13 -4 -23 6 -7 14 -40 18 -73 4 -33 15 -79
26 -102 10 -24 28 -117 40 -208 16 -117 27 -165 36 -165 9 0 13 19 13 68 0
100 -27 317 -42 344 -7 13 -17 55 -23 93 -8 59 -13 70 -30 73 -11 1 -26 -2
-34 -7z M0 426 l0 -25 205 -3 205 -3 27 -28 28 -27 -29 -114 c-16 -63 -26
-121 -23 -130 11 -27 137 -17 497 38 130 20 644 91 810 111 74 9 178 25 230
35 231 45 402 70 485 70 28 0 60 6 70 14 18 13 17 14 -9 31 -27 18 -33 18
-159 1 -73 -10 -149 -22 -169 -27 -21 -5 -55 -13 -75 -18 -43 -11 -205 -35
-373 -56 -63 -7 -164 -21 -225 -30 -243 -35 -327 -47 -495 -71 -285 -39 -320
-43 -420 -46 l-95 -3 1 40 c1 22 6 69 13 103 14 78 11 90 -35 122 -31 21 -49
24 -128 26 -50 1 -146 5 -213 9 l-123 6 0 -25z"/>
  </g>
</svg>